<svg width="141" height="94" viewBox="0 0 141 94" fill="none" xmlns="http://www.w3.org/2000/svg">
<rect width="141" height="94" rx="14" fill="#383F63"/>
<rect x="8" y="8" width="90" height="78" rx="14" fill="#F79C14"/>
<path d="M26.48 70V25.2H36.912L55.472 55.664H49.968L68.016 25.2H78.448L78.576 70H66.928L66.8 42.928H68.784L55.28 65.584H49.648L35.76 42.928H38.192V70H26.48Z" fill="white"/>
<path d="M109.88 70.896C106.339 70.896 103.053 70.3413 100.024 69.232C96.9947 68.08 94.3707 66.4587 92.152 64.368C89.976 62.2773 88.2693 59.824 87.032 57.008C85.7947 54.1493 85.176 51.0133 85.176 47.6C85.176 44.1867 85.7947 41.072 87.032 38.256C88.2693 35.3973 89.9973 32.9227 92.216 30.832C94.4347 28.7413 97.0587 27.1413 100.088 26.032C103.16 24.88 106.509 24.304 110.136 24.304C114.36 24.304 118.136 25.008 121.464 26.416C124.792 27.824 127.544 29.8507 129.72 32.496L121.656 39.792C120.12 38.128 118.456 36.8907 116.664 36.08C114.915 35.2267 112.952 34.8 110.776 34.8C108.856 34.8 107.107 35.0987 105.528 35.696C103.949 36.2933 102.605 37.168 101.496 38.32C100.387 39.4293 99.512 40.7733 98.872 42.352C98.2747 43.888 97.976 45.6373 97.976 47.6C97.976 49.4773 98.2747 51.2053 98.872 52.784C99.512 54.3627 100.387 55.728 101.496 56.88C102.605 57.9893 103.928 58.864 105.464 59.504C107.043 60.1013 108.771 60.4 110.648 60.4C112.525 60.4 114.36 60.1013 116.152 59.504C117.944 58.864 119.757 57.7973 121.592 56.304L128.696 65.2C126.136 67.0347 123.171 68.4427 119.8 69.424C116.429 70.4053 113.123 70.896 109.88 70.896ZM117.496 63.536V46.64H128.696V65.2L117.496 63.536Z" fill="white"/>
</svg>
